<svg xmlns="http://www.w3.org/2000/svg" width="77" height="48" fill="none"><path fill="#2BDEFD" fill-rule="evenodd" d="M50.88 0H40.32v11.52h-7.412l-3.84 11.52h-1.425l-12.887 5.523-3.682-5.523H0V48h11.074l3.682-5.523L27.643 48H64.32c4.92 0 8.09-2.072 9.995-4.72 1.87-2.597 2.485-5.686 2.485-7.76 0-4.92-2.072-8.09-4.72-9.995-2.597-1.87-5.686-2.485-7.76-2.485h-5.167l-5.76-11.52H42.24v-9.6h8.64V0Zm1.327 13.44 4.8 9.6H31.092l3.2-9.6h17.915ZM1.92 24.96v21.12h8.126l3.998-5.997 13.993 5.997H64.32c4.295 0 6.887-1.768 8.437-3.92 1.585-2.203 2.123-4.874 2.123-6.64 0-4.295-1.768-6.887-3.92-8.437-2.203-1.585-4.874-2.123-6.64-2.123H28.037l-13.993 5.997-3.998-5.997H1.92Z" clip-rule="evenodd"/><circle cx="37.5" cy="35.5" r="2.5" fill="#D7F9FF"/><circle cx="53.5" cy="35.5" r="2.5" fill="#D7F9FF"/></svg>